<?xml version="1.0" encoding="utf-8"?>
<!-- Generator: Adobe Illustrator 23.0.0, SVG Export Plug-In . SVG Version: 6.00 Build 0)  -->
<svg version="1.1" id="Capa_1" xmlns="http://www.w3.org/2000/svg" xmlns:xlink="http://www.w3.org/1999/xlink" x="0px" y="0px"
	 viewBox="0 0 623.6 340.2" style="enable-background:new 0 0 623.6 340.2;" xml:space="preserve">
<style type="text/css">
	.st0{fill:#002368;}
	.st1{fill-rule:evenodd;clip-rule:evenodd;fill:#002368;}
	.st2{clip-path:url(#SVGID_2_);}
	.st3{fill-rule:evenodd;clip-rule:evenodd;fill:#686B6B;}
	.st4{fill:#686B6B;}
	.st5{fill:none;stroke:#89878C;stroke-miterlimit:10;}
	.st6{fill-rule:evenodd;clip-rule:evenodd;fill:#FFFEF1;}
	.st7{fill-rule:evenodd;clip-rule:evenodd;fill:#E51A4F;fill-opacity:0.7;}
	.st8{fill:#1E120D;}
	.st9{fill-rule:evenodd;clip-rule:evenodd;fill:#1E120D;}
	.st10{fill:#5B5B5F;}
	.st11{fill-rule:evenodd;clip-rule:evenodd;fill:#5B5B5F;}
	.st12{fill:#FFFFFF;}
	.st13{fill-rule:evenodd;clip-rule:evenodd;fill:#FFFFFF;}
	.st14{fill:#FFFFFF;stroke:#FFFFFF;stroke-width:0.75;stroke-miterlimit:10;}
	.st15{fill:#1E120D;stroke:#1E120D;stroke-width:0.75;stroke-miterlimit:10;}
	.st16{fill:#5B5B5F;stroke:#5B5B5F;stroke-width:0.75;stroke-miterlimit:10;}
	.st17{fill:none;stroke:#EF116C;stroke-miterlimit:10;}
</style>
<g>
	<g>
		<path class="st0" d="M487.1,153.2c-1.1,0-1.2,1.1,0.1,1.8c2.3,1.3,3.5,3.3,3.5,6.9v48.2c0,6.4-1.2,9.3-3.8,10.2
			c-1.2,0.4-1.1,2.1,0,2.1h43.7c2.6,0,5-1.7,5.9-3.9l2.8-6.7c0.6-1.5,0-2.4-1.4-1.6c-6.4,3.9-13.2,6.8-20.9,6.8h-8.3
			c-2.9,0-5.7-2.3-5.7-4.5v-24.1h15.3c3.6,0,6.6,1.2,8.2,3.5c0.8,1.1,2.1,1.4,2.1,0v-12.6c0-1.3-1.6-1.2-2,0
			c-0.6,1.8-3.6,3.7-8.4,3.7h-15v-18.7c0-5.7,2.1-6.8,6.8-6.8c4.5,0,13.2,3.2,18.9,6.5c0.8,0.5,1.7-0.3,1.3-1.1l-2.6-6.2
			c-0.9-2.2-3.5-3.6-5.5-3.6H487.1z M397.5,153.2c-3.4,0-6.7-0.1-10.1,0c-1.4,0-1.8,1.4-0.5,1.9c3.5,1.3,7.7,6.5,7.7,13.1V211
			c0,4.5-1.2,8.2-4.1,9.7c-0.9,0.5-1,1.6,0,1.6h15.4c1,0,1.1-1.5,0.2-1.9c-3.6-1.5-4.1-5.1-4.1-10.2V170l54,52.1c1,1,2.7,1.1,2.7,0
			v-58.9c0-4.1,0.9-6.8,3.9-8.4c0.7-0.4,0.4-1.6-0.3-1.6h-15.2c-1.1,0-1.3,1.4,0,1.8c2.4,0.9,3.9,3.6,3.9,7.6v37.8l-43.8-42.7
			C404.2,154.9,400.9,153.2,397.5,153.2 M324,189.9h20.2l-10.8-25.2L324,189.9z M303.1,222.4c-1.4,0-1.4-1.6-0.4-2.4
			c2-1.5,3.9-4.1,5.2-7.8l18.5-51.6c0.6-1.8,0.8-3.5-0.6-4.5l-1.7-1.2c-1.1-0.8-1.2-1.7,0-1.7h11.6c2.9,0,5.7,1,7,4.3l23.9,57.2
			c1.1,2.6,2.8,4.6,5,6c0.9,0.6,0.8,1.8-0.3,1.8l-19.9,0c-1.4,0-1.1-1.6,0-2.2c3.4-1.7,3.3-4.7,1.9-8.4l-6.9-16.2h-24.5l-6,16.1
			c-1.1,2.9-0.9,7.5,2.3,8.9c0.9,0.4,0.7,1.7-0.2,1.7L303.1,222.4z M241.2,154.8c3.4,0.4,3.9,4,4.1,8.9c0.1,2.9,0.2,9.5,0.2,21.1
			c0,14.3-0.2,25.1-0.4,28.1c-0.3,3.6,0.4,5.6-3.9,7.5c-0.5,0.3-0.5,1.5,0,1.9c15.8,0,23.4,0,39.2,0c7,0,8.2-6.1,10-11.3
			c0.3-1.1-0.4-1.9-1.4-1.1c-3.5,2.9-9.1,5-10.7,5.6c-4.5,1.6-14.2,2.3-17,1.3c-0.7-0.2-3.8-2.1-3.9-3.8c-0.3-4.7,0-13.9,0-27.5
			c0-10.3,0.1-19.8,0.3-23.8c0.3-4.5,2.7-6.5,4.2-6.9c0.5-0.4,0.8-1.6,0.1-1.6h-20.7C240.9,153.6,240.8,154.4,241.2,154.8
			 M180.6,157.1c10.2,0,15.4,6.1,15.4,16.4c0,7.2-3.6,11.2-7.2,12.8c-2.1,0.9-4.6,1.1-12,0.9c-0.3,0-1.2-0.8-1.2-1
			c0-8.6,0-23.1,0.2-26.8c0-0.5,0.4-1.5,0.8-1.7C177.9,157.2,179.8,157.1,180.6,157.1 M159.9,154.8c3.1,0.3,4.1,4.2,4.2,7.5
			c0.1,3.4,0.1,14.4,0.1,25.7c0,6.1-0.1,21-0.2,23.6c-0.2,4.2-1.3,8.1-3.9,8.9c-0.2,0.1-0.7,2,0.1,2h19.7c1.3,0,1.1-1.6,0.4-2
			c-3.9-2.1-3.6-5.4-3.9-8.3c-0.3-2.1-0.8-20.9-0.2-20.9c4.4,0,10.4-0.7,13.7,3.2c5.2,6.2,12.1,21.7,17.3,25.7
			c3.3,2.5,11,2.7,15.9,1.8c0.8-0.2,1.3-0.9,0.2-1.6c-1.4-0.9-3.2-1.8-5.3-4.1c-2.9-3.1-12.4-22.6-20.6-28c6.6-3,11.2-8.7,11.2-18
			c0-9.2-7.9-17.1-20.8-17.1h-28C159.5,153.4,159.5,154.4,159.9,154.8 M103,217.2c-5.6,0-9.8-0.2-13.6-2.7c-9.7-6.2-14-18.8-14-30.4
			c0-11.2,3.7-20.3,11.8-25c2.7-1.6,6.1-3.3,9.9-3.3c5.7,0,10.5,1.7,14.4,4.4c8.7,6.1,13,15.9,13,27.8c0,10.1-3,18.9-9.8,24.4
			C111.9,214.8,107.6,217.2,103,217.2 M99,224c11,0,22.1-5,29-14.4c4.5-6.3,7.1-14.1,7.1-23.8c0-17.9-12.8-34.3-35.2-34.3
			c-11.3,0-25.1,5.6-31.2,14c-4.4,6.1-7.4,12.9-7.4,21.1c0,9.9,3.4,20.3,10,27.5C76.9,220.2,88.4,224,99,224"/>
		<path class="st1" d="M265.1,253.7h5.9l-3-6.9L265.1,253.7z M256.7,262.4l8.5-20.4h5.4l8.5,20.4h-4.9l-2.1-5.1h-8.4l-2,5.1H256.7z
			 M373,246.3l0.7-3.6c-4.8-1.3-9.5-2.2-14.3-0.1c-4,1.8-5,5.7-2.2,8.6c2.7,2.7,7.2,2.1,11.5,3.4c2.7,0.8,2.5,3.7-0.3,4.3
			c-3.7,0.7-7.2,0-11-1.2l-0.5,3.9c2.9,0.6,5.8,1.3,10,1.1c7.1-0.3,11.9-5.9,6.9-10.4c-2.8-2.5-8.4-2.4-11.1-2.8
			c-3-0.5-3.3-3.7,1-4.3C366.7,244.8,369.8,245.3,373,246.3 M333.3,242h4.8v20.3h-4.8V242z M300.3,251v-4.8h6.4
			c3.7,0,4.4,4.8-0.7,4.8H300.3z M295.6,262.4V242h11.1c9.3,0,11,10.8,2.1,12.8l5.3,7.6h-5.5l-5.1-7.3l-3.3,0v7.3L295.6,262.4z
			 M229.6,251v-4.8h6.4c3.7,0,4.4,4.8-0.7,4.8H229.6z M224.9,262.4V242H236c9.7,0,10.9,13-0.4,13h-6.1v7.3L224.9,262.4z"/>
	</g>
	<g>
		<g>
			<path class="st10" d="M243.4,127.4l5.1-17.9l1.6,0.1c-0.3,2-0.4,3.6-0.4,4.7c0,3.2,0.9,5.8,2.8,7.8c1.9,2,4.4,3,7.5,3
				c2.7,0,4.9-0.9,6.7-2.8c1.8-1.9,2.7-4.2,2.7-6.9c0-2-0.7-4-2.2-5.9l-2.2-2.5l-2.8-2.5l-3.6-3.2c-0.3-0.3-0.7-0.7-1-1.1
				c-0.4-0.4-0.9-1.1-1.6-2c-1.8-2.5-2.7-5.1-2.7-7.9c0-3.7,1.3-6.8,4-9.2c2.7-2.4,6-3.6,10-3.6c2.2,0,5.1,0.6,8.4,1.8
				c1.4,0.5,2.6,0.8,3.5,0.8c1.2,0,2.2-0.8,3.1-2.3h1.6l-4.5,15.6h-1.6l0.3-3.8c0-2.9-0.8-5.2-2.4-7c-1.6-1.7-3.8-2.6-6.7-2.6
				c-2.4,0-4.4,0.8-6.1,2.4s-2.5,3.6-2.5,5.9c0,2.8,1.9,6,5.8,9.6l2.9,2.5c2.9,2.5,4.9,4.8,6.2,6.9c1.2,2.1,1.9,4.3,1.9,6.6
				c0,3.8-1.5,7.1-4.5,9.7c-3,2.6-6.7,4-11,4c-1.2,0-2.5-0.1-4.1-0.4c-1.6-0.3-3-0.6-4.2-1.1l-2.8-1l-1.6-0.2c-1.7,0-3,0.9-3.9,2.8
				H243.4z"/>
			<path class="st10" d="M272.2,139.5l0.6-2h0.7c1.2,0,2.4-0.4,3.6-1.2c0.5-0.4,0.9-1,1.3-1.8l1.4-4l8.8-30.9
				c0.4-1.6,0.6-2.7,0.6-3.5c0-1.7-0.9-2.6-2.6-2.6h-1.3l0.4-1.7l13-2.2l-2,7l2.2-2.7l1.6-1.6c2.2-2,4.5-3,6.8-3c2.4,0,4.4,1,5.9,3
				c1.5,2,2.2,4.7,2.2,8c0,4.5-1.3,9.2-3.8,13.8c-2.3,4-4.9,7.1-8.1,9.4c-3.1,2.2-6.4,3.3-9.7,3.3c-1,0-1.8-0.1-2.6-0.2
				c-0.7-0.2-1.6-0.6-2.8-1.2L287,131l-0.7,2.3l-0.1,1.4c0,1.9,1.4,2.8,4.3,2.8h1l-0.6,2H272.2z M295,103.4l-5.7,19.4
				c0.9,0.8,1.6,1.4,2.3,1.7c0.7,0.3,1.4,0.5,2.2,0.5c3.1,0,5.7-1.7,7.8-5c0.8-1.3,1.7-3,2.6-5c0.9-2,1.6-3.9,2.2-5.7
				c0.1-0.4,0.3-1,0.5-1.8s0.5-2,0.8-3.5l0.3-4.5c0-1.6-0.4-2.9-1.1-3.9c-0.8-1-1.7-1.5-2.9-1.5c-2,0-4,1.2-5.8,3.6
				c-0.8,0.9-1.4,1.9-2,2.9c-0.3,0.5-0.5,0.9-0.6,1.3C295.3,102.4,295.1,102.8,295,103.4z"/>
			<path class="st10" d="M345.7,95.3l1.3-5h7.1l-8.1,28.3l-0.5,1.6l-0.1,1c0,0.7,0.3,1.1,0.9,1.1c1.1,0,2.9-1.6,5.4-4.9l1.5,1
				c-1.7,2.8-3.5,5-5.5,6.6c-2,1.6-3.9,2.4-5.7,2.4c-2.7,0-4-1.5-4-4.5c0-0.9,0.1-1.9,0.4-3.1l0.8-3l-3.2,4.2
				c-0.8,1-1.7,1.8-2.6,2.7c-2.7,2.4-5.4,3.6-8,3.6c-2.2,0-3.9-0.9-5.3-2.6s-2-4.1-2-6.9c0-2.4,0.4-4.9,1.3-7.6
				c0.9-2.7,2.1-5.3,3.6-7.9c2.3-3.8,5-6.9,8-9.2c3-2.3,5.9-3.5,8.7-3.5C342.9,89.8,344.8,91.6,345.7,95.3z M330,102.7
				c-1.2,2.3-2.2,4.7-3,7.2c-0.8,2.4-1.2,4.6-1.2,6.5v0.7c0,3.4,1.3,5.1,3.8,5.1c1.4,0,3-0.8,4.7-2.3c1.7-1.5,3.4-3.6,5-6.4
				c1.4-2.4,2.6-5.1,3.5-8c0.4-1.4,0.8-2.8,1-4c0.2-1.2,0.3-2.4,0.3-3.6c0-1.6-0.3-2.9-1-3.9c-0.7-1-1.6-1.5-2.6-1.5
				c-1.5,0-3.2,0.9-5,2.6C333.6,96.8,331.8,99.4,330,102.7z"/>
		</g>
	</g>
</g>
</svg>
